<svg id="homepage_roboto" data-name="homepage roboto" xmlns="http://www.w3.org/2000/svg" viewBox="0 0 35 35"><defs><style>.cls-1{fill:#3a5a9c;}.cls-2{fill:none;stroke:#fff;stroke-linecap:round;stroke-linejoin:round;}</style></defs><title>Vector Smart Object2</title><rect class="cls-1" x="-1" y="-1" width="37" height="37"/><path class="cls-2" d="M14.84,17.5v10a1,1,0,0,0,1,1h2a1,1,0,0,0,1-1v-10"/><path class="cls-2" d="M14.84,13.5h-1a1,1,0,0,0-1,1v2a1,1,0,0,0,1,1h1"/><path class="cls-2" d="M18.84,17.5h2a1.35,1.35,0,0,0,1.24-1l0.51-2.06a0.74,0.74,0,0,0-.76-1h-3"/><polyline class="cls-2" points="18.84 6.5 21.84 6.5 21.84 10.5 18.84 10.5 18.84 13.5"/><line class="cls-2" x1="14.84" y1="13.5" x2="14.84" y2="10.5"/><path class="cls-2" d="M18.84,6.5a3.65,3.65,0,0,0-4,4"/></svg>