<svg id="homepage_roboto" data-name="homepage roboto" xmlns="http://www.w3.org/2000/svg" viewBox="0 0 35 35"><defs><style>.cls-1{fill:#1175bc;}.cls-2{fill:none;stroke:#fff;stroke-linecap:round;stroke-linejoin:round;}</style></defs><title>Vector Smart Object2</title><rect class="cls-1" x="-1" y="-1" width="37" height="37"/><path class="cls-2" d="M16,21.5a4.38,4.38,0,0,0-1,3v4h6s0-3,0-4a4.38,4.38,0,0,0-1-3"/><path class="cls-2" d="M20,21.5c5-1,7-3,7-7a6.46,6.46,0,0,0-1.52-4.41A13.27,13.27,0,0,0,26,6.5a7,7,0,0,0-4.35,1.43A14.45,14.45,0,0,0,18,7.5a13.76,13.76,0,0,0-4.27.61A6.57,6.57,0,0,0,10,6.5a13.28,13.28,0,0,0,.51,3.63A6.46,6.46,0,0,0,9,14.55c0,4,2,6,7,7"/><path class="cls-2" d="M8,21.5c2,1,2,4,6,4h0.87"/></svg>