<svg xmlns="http://www.w3.org/2000/svg" viewBox="0 0 248.35 201.88"><path d="M248.35,23.9A104.41,104.41,0,0,1,219.08,32,52,52,0,0,0,241.47,3.77,102.81,102.81,0,0,1,209.1,16.1,51,51,0,0,0,120.95,51a48,48,0,0,0,1.34,11.57,144.3,144.3,0,0,1-105-53.26,50.26,50.26,0,0,0-7,25.67A51.06,51.06,0,0,0,33,77.42,52.35,52.35,0,0,1,9.9,71v.59a51,51,0,0,0,40.93,50,50.81,50.81,0,0,1-13.42,1.85,51.33,51.33,0,0,1-9.56-.92A50.78,50.78,0,0,0,75.4,157.85a102.28,102.28,0,0,1-63.24,21.89A115.47,115.47,0,0,1,0,179a143.75,143.75,0,0,0,78.09,22.9c93.77,0,145-77.67,145-144.93,0-2.26-.08-4.45-.17-6.63A105.73,105.73,0,0,0,248.35,23.9Z" style="fill:#ffffff"/></svg>