<svg xmlns="http://www.w3.org/2000/svg" viewBox="0 0 24 24"><path d="M16.25946,2.809a.39745.39745,0,0,1-.40491.0721,11.9279,11.9279,0,0,0-4.24461-.75085,11.93729,11.93729,0,0,0-4.24144.74966A.39832.39832,0,0,1,6.96082,2.805,7.332,7.332,0,0,0,3.69894,1.01536a12.63042,12.63042,0,0,0,.54649,3.65577.39193.39193,0,0,1-.07218.37976A5.11385,5.11385,0,0,0,2.90181,8.43051c0,4.346,1.96585,6.40074,6.78551,7.09171a.35271.35271,0,0,1,.04957.01773.27686.27686,0,0,1,.1396.0717.37745.37745,0,0,1,.05433.04924.38768.38768,0,0,1,.044.07012.39859.39859,0,0,1,.02776.04452c.002.0063.00079.0126.00277.01851a.36657.36657,0,0,1,.0119.07524.38878.38878,0,0,1,.00476.08c-.00079.00631.002.01222.00079.01891a.33959.33959,0,0,1-.019.05555.35987.35987,0,0,1-.02142.06421.38514.38514,0,0,1-.048.06736.36575.36575,0,0,1-.03847.04728.40375.40375,0,0,1-.09915.06224c-.00833.00394-.01388.011-.02221.01458-.0349.015-1.17824.53772-1.31506,3.05816a.3943.3943,0,0,1-.29625.36006,3.53861,3.53861,0,0,1-3.96581-1.233c-.07614-.07918-.15229-.158-.22923-.23518.03689.08352.07337.16585.10867.24818.54768,1.25392.94347,2.16,2.38742,2.16H8.04785a.37373.37373,0,0,1,.37159.39276V23H14.787c-.004-.574-.01031-1.72428-.01031-3.15,0-3.00143-1.31031-3.56358-1.32379-3.56831a.37817.37817,0,0,1-.04839-.02955.39273.39273,0,0,1-.06979-.04254.38589.38589,0,0,1-.05037-.05752.37373.37373,0,0,1-.04323-.05948.39246.39246,0,0,1-.027-.07958.3815.3815,0,0,1-.01744-.052c-.0008-.00512.00158-.00985.00079-.01458a.40948.40948,0,0,1,.006-.076.37771.37771,0,0,1,.01229-.08l.002-.01378a.4042.4042,0,0,1,.02816-.0457.3764.3764,0,0,1,.04481-.07249.38986.38986,0,0,1,.05791-.05042.40057.40057,0,0,1,.0579-.04215.40488.40488,0,0,1,.08645-.02876.32667.32667,0,0,1,.0468-.01576c5.7302-.71894,6.77876-2.95219,6.77876-7.09092a5.09427,5.09427,0,0,0-1.12986-3.2051.39183.39183,0,0,1-.04362-.41522A9.50765,9.50765,0,0,0,19.91594,1,7.60653,7.60653,0,0,0,16.25946,2.809Z" style="fill:#fff;fill-rule:evenodd"/></svg>