<svg id="homepage_roboto" data-name="homepage roboto" xmlns="http://www.w3.org/2000/svg" viewBox="0 0 35 35"><defs><style>.cls-1{fill:#23beef;}.cls-2{fill:#fff;}</style></defs><title>Vector Smart Object2</title><rect class="cls-1" x="-1" y="-1" width="37" height="37"/><path class="cls-2" d="M21.46,9.5a4.11,4.11,0,0,1,3,1.27,8.31,8.31,0,0,0,2.6-1A4,4,0,0,1,25.25,12a8.31,8.31,0,0,0,2.35-.64,8.29,8.29,0,0,1-2,2.09c0,0.17,0,.35,0,0.52,0,5.33-3.39,11.49-10.91,11.49a12.56,12.56,0,0,1-7-1.84,8,8,0,0,0,1,.06A8.28,8.28,0,0,0,13.71,22a4.08,4.08,0,0,1-3.82-2.8,4.14,4.14,0,0,0,1.85-.07,3.89,3.89,0,0,1-3.11-3.94V15.13a4.13,4.13,0,0,0,1.85.51,4,4,0,0,1-1.82-3.36,4,4,0,0,1,.55-2,11.31,11.31,0,0,0,8.27,4.2,4,4,0,0,1-.11-0.92,4.06,4.06,0,0,1,4.09-4m6.13,1.89h0M21.46,8.5a5.07,5.07,0,0,0-5.09,4.83A10.27,10.27,0,0,1,10,9.62a1,1,0,0,0-.77-0.36H9.13a1,1,0,0,0-.78.49,5,5,0,0,0-.27,4.55,1,1,0,0,0-.46.84v0.05A5.08,5.08,0,0,0,9,18.72a1,1,0,0,0-.07.78,5,5,0,0,0,2.22,2.77,7.33,7.33,0,0,1-2.53.44,7,7,0,0,1-.85,0H7.65a1,1,0,0,0-.53,1.85,13.68,13.68,0,0,0,7.53,2c7.82,0,11.91-6.29,11.91-12.49v0a9.25,9.25,0,0,0,1.83-2,1,1,0,0,0-.51-1.57q0.06-.16.12-0.32a1,1,0,0,0-1.46-1.17,7.25,7.25,0,0,1-1.8.75A5.15,5.15,0,0,0,21.46,8.5h0Z"/></svg>