<svg id="homepage_roboto" data-name="homepage roboto" xmlns="http://www.w3.org/2000/svg" viewBox="0 0 35 35"><defs><style>.cls-1{fill:#eb2329;}.cls-2{fill:none;stroke:#fff;stroke-linecap:round;stroke-linejoin:round;}</style></defs><title>Vector Smart Object2</title><rect class="cls-1" x="-1" y="-1" width="37" height="37"/><path class="cls-2" d="M17,25.5A50.56,50.56,0,0,0,25.06,25a3.13,3.13,0,0,0,2-1.59A15.83,15.83,0,0,0,28,17.5a15.84,15.84,0,0,0-.87-5.94,3.12,3.12,0,0,0-2-1.59A50.56,50.56,0,0,0,17,9.5h0A50.51,50.51,0,0,0,8.9,10a3.12,3.12,0,0,0-2,1.59A15.86,15.86,0,0,0,6,17.5a15.85,15.85,0,0,0,.87,5.94A3.12,3.12,0,0,0,8.9,25,50.51,50.51,0,0,0,17,25.5h0Z"/><polygon class="cls-2" points="14.97 20.5 14.97 14.5 19.97 17.5 14.97 20.5"/></svg>