<svg xmlns="http://www.w3.org/2000/svg" xmlns:xlink="http://www.w3.org/1999/xlink" viewBox="0 0 455 39"><defs><linearGradient id="a" x1="16.01436" y1="855.06596" x2="21.56232" y2="860.61392" gradientTransform="matrix(1, 0, 0, -1, 0, 862)" gradientUnits="userSpaceOnUse"><stop offset="0" stop-color="#ff445f" stop-opacity="0"/><stop offset="1" stop-color="#ff445f" stop-opacity="0.3"/></linearGradient><linearGradient id="b" x1="1.14095" y1="840.20432" x2="7.05742" y2="846.09362" gradientTransform="matrix(1, 0, 0, -1, 0, 862)" gradientUnits="userSpaceOnUse"><stop offset="0" stop-color="#1904da" stop-opacity="0.2"/><stop offset="1" stop-color="#1904da" stop-opacity="0"/></linearGradient><linearGradient id="c" x1="2.88952" y1="841.93205" x2="2.88952" y2="847.71016" gradientTransform="matrix(1, 0, 0, -1, 0, 862)" gradientUnits="userSpaceOnUse"><stop offset="0" stop-color="#1904da" stop-opacity="0.3"/><stop offset="0.00842" stop-color="#1904da" stop-opacity="0.27834"/><stop offset="0.06395" stop-color="#1904da" stop-opacity="0.15659"/><stop offset="0.12067" stop-color="#1904da" stop-opacity="0.06932"/><stop offset="0.17882" stop-color="#1904da" stop-opacity="0.01716"/><stop offset="0.24057" stop-color="#1904da" stop-opacity="0"/></linearGradient><linearGradient id="d" x1="-5.89817" y1="916.27009" x2="-5.89817" y2="922.05198" gradientTransform="translate(936.32707 8.78959) rotate(90)" gradientUnits="userSpaceOnUse"><stop offset="0" stop-color="#ff445f" stop-opacity="0.4"/><stop offset="0.008" stop-color="#ff445f" stop-opacity="0.37252"/><stop offset="0.05232" stop-color="#ff445f" stop-opacity="0.23878"/><stop offset="0.09754" stop-color="#ff445f" stop-opacity="0.13396"/><stop offset="0.14349" stop-color="#ff445f" stop-opacity="0.05928"/><stop offset="0.19058" stop-color="#ff445f" stop-opacity="0.01467"/><stop offset="0.24057" stop-color="#ff445f" stop-opacity="0"/></linearGradient></defs><path d="M107.31939,12.86248a11.19,11.19,0,1,1-22.38-.01561V1.65308h3.98619V12.83823h0c0,.00825,0-.00824,0,0a7.19981,7.19981,0,1,0,14.39959,0c0-.00824,0,.00825,0,0h0V1.65308h3.99424ZM77.48339,39h4.09186V13.58c.01327-.22379,0-.44928,0-.67641A11.24418,11.24418,0,1,0,70.33666,24.15415h.57042l4.13875-4.12049H70.33819a7.13007,7.13007,0,1,1,7.1452-7.13ZM55.68454,24.26893H44.34733q-.37475-.00029-.7454-.02517A11.33839,11.33839,0,0,1,33.03067,12.944C33.29159.18888,50.55818-2.66862,55.01388,9.09879a11.35179,11.35179,0,0,1,.67066,3.84523ZM44.35671,20.13458h7.1378s.00005-5.2053,0-7.19056A7.14808,7.14808,0,0,0,39.29507,7.88186l-.00131-.0013a7.10935,7.10935,0,0,0-2.11,5.06346A7.188,7.188,0,0,0,44.35671,20.13458Zm88.9558,4.13435H121.9753q-.37475-.00029-.7454-.02517A11.33837,11.33837,0,0,1,110.65864,12.944c.26092-12.75514,17.5275-15.61264,21.98321-3.84523a11.35179,11.35179,0,0,1,.67066,3.84523Zm-11.32784-4.13435h7.13781s.00005-5.2053,0-7.19056A7.14808,7.14808,0,0,0,116.923,7.88186l-.00131-.0013a7.10939,7.10939,0,0,0-2.11,5.06346A7.188,7.188,0,0,0,121.98467,20.13458Z" style="fill:#07242d"/><path d="M5.779,20.06794,5.77858,6.73332c0-.826-.88509-.826-.88509-.826a.79988.79988,0,0,0-.649.295L.42393,10.02281A1.4567,1.4567,0,0,0,0,11.05538v9.01256Z" style="fill:#08b1d5"/><path d="M20.057.00017H11.04474a1.46029,1.46029,0,0,0-1.03258.42771L6.19165,4.2484a.79991.79991,0,0,0-.295.649s0,.88539.82605.88539H20.057Z" style="fill:#ffc900"/><polygon points="14.275 5.783 20.057 5.783 20.057 0 14.275 5.783" style="opacity:0.889999985694885;isolation:isolate;fill:url(#a)"/><polyline points="0 20.068 5.779 14.29 5.779 20.068 0 20.068" style="opacity:0.819999992847443;isolation:isolate;fill:url(#b)"/><polyline points="0 20.068 5.779 14.29 5.779 20.068 0 20.068" style="fill:url(#c)"/><polyline points="20.057 0 14.275 5.783 20.057 5.783 20.057 0" style="fill:url(#d)"/><path d="M25.6917.48582a1.02621,1.02621,0,0,0-.86327-.4857H20.05694c-.00014,3.74452-.00019,15.19808,0,19.11665a.83082.83082,0,0,0,.88592.82609.80033.80033,0,0,0,.64931-.29519l3.82036-3.82036a1.45733,1.45733,0,0,0,.425-1.0326V.94119A.89487.89487,0,0,0,25.6917.48582Z" style="fill:#ff445f"/><path d="M.489,25.71182A1.02839,1.02839,0,0,1,0,24.849v-4.7811H19.11428a.82394.82394,0,0,1,.827.87548.80031.80031,0,0,1-.29454.64961L15.8302,25.41722a1.45732,1.45732,0,0,1-1.03217.42609L.94452,25.85724A.89478.89478,0,0,1,.489,25.71182Z" style="fill:#1904da"/><path d="M271.13574,23.18164h4.23633V7.90869h-4.23633ZM248.082,8.93311a6.44113,6.44113,0,0,0-2.07812-.92481A9.8412,9.8412,0,0,0,243.56249,7.71a8.66713,8.66713,0,0,0-3.21679.55176A5.6876,5.6876,0,0,0,238.084,9.833a5.35809,5.35809,0,0,0-1.17382,2.41113l3.918.31836a2.35589,2.35589,0,0,1,.89453-1.25781,2.98588,2.98588,0,0,1,1.82031-.50244,2.46613,2.46613,0,0,1,1.6748.51709,1.83782,1.83782,0,0,1,.5918,1.46191v.05957a.83087.83087,0,0,1-.36816.73584,2.99682,2.99682,0,0,1-1.18262.37256q-.81592.12451-2.14844.26367a13.82382,13.82382,0,0,0-2.16211.37793,6.16487,6.16487,0,0,0-1.835.79541,3.792,3.792,0,0,0-1.27246,1.39209,4.452,4.452,0,0,0-.4668,2.1377,4.50123,4.50123,0,0,0,.66114,2.5205,4.11306,4.11306,0,0,0,1.80468,1.52149,6.30718,6.30718,0,0,0,2.6045.5122,6.03641,6.03641,0,0,0,1.999-.30371,4.43517,4.43517,0,0,0,1.48144-.84472,4.24614,4.24614,0,0,0,.98438-1.25782h.11914v2.11768h4.01758V12.88037a4.87352,4.87352,0,0,0-.52735-2.34131A4.52633,4.52633,0,0,0,248.082,8.93311Zm-2.24219,8.78955a2.618,2.618,0,0,1-.4082,1.44189,2.88688,2.88688,0,0,1-1.123,1.00928,3.52711,3.52711,0,0,1-1.65136.37305,2.688,2.688,0,0,1-1.60547-.45264,1.51844,1.51844,0,0,1-.63086-1.31738,1.59834,1.59834,0,0,1,.30762-.99952,2.11149,2.11149,0,0,1,.86523-.64111,5.251,5.251,0,0,1,1.30273-.34814q.34717-.04981.7754-.11426.42773-.06445.85546-.14893c.28418-.05664.542-.11963.77051-.189a2.17168,2.17168,0,0,0,.542-.23389ZM233.67578,7.68994a3.70231,3.70231,0,0,0-2.26758.731,3.96921,3.96921,0,0,0-1.40136,2.15283h-.15918v-2.665h-4.10645v15.273h4.23535V14.541a3.17992,3.17992,0,0,1,.42285-1.65039,2.98725,2.98725,0,0,1,1.15332-1.11866,3.39132,3.39132,0,0,1,1.665-.40283,7.42452,7.42452,0,0,1,.96485.06982,5.55347,5.55347,0,0,1,.82519.1587V7.83936a4.81459,4.81459,0,0,0-.64648-.10938A6.44052,6.44052,0,0,0,233.67578,7.68994Zm31.57227.89014A5.76542,5.76542,0,0,0,262.165,7.71a4.7421,4.7421,0,0,0-2.14258.43262,4.27025,4.27025,0,0,0-1.3916,1.07373,5.63146,5.63146,0,0,0-.81055,1.25781h-.1289V2.81787h-4.23633V23.18164h4.17578v-2.4458h.18945a5.13157,5.13157,0,0,0,.835,1.25781,4.28741,4.28741,0,0,0,1.40722,1.02881,4.85459,4.85459,0,0,0,2.09278.40772,5.71856,5.71856,0,0,0,3.14746-.89991,6.12625,6.12625,0,0,0,2.22657-2.65478,10.14191,10.14191,0,0,0,.82031-4.31055,9.99793,9.99793,0,0,0-.84473-4.36963A6.07531,6.07531,0,0,0,265.24805,8.58008ZM263.65234,17.897a3.53941,3.53941,0,0,1-1.08886,1.59082,2.96958,2.96958,0,0,1-3.49024.00977,3.494,3.494,0,0,1-1.09375-1.57568,6.79678,6.79678,0,0,1-.37793-2.37647,6.71511,6.71511,0,0,1,.37793-2.3667,3.41086,3.41086,0,0,1,1.08887-1.55127,2.77827,2.77827,0,0,1,1.74512-.54687,2.748,2.748,0,0,1,1.75976.56689,3.47243,3.47243,0,0,1,1.084,1.57129,6.7514,6.7514,0,0,1,.36718,2.32666A6.84007,6.84007,0,0,1,263.65234,17.897Zm190.46094-1.26806V15.46582a9.67968,9.67968,0,0,0-.54687-3.40576A6.584,6.584,0,0,0,452.04,9.63916a6.34235,6.34235,0,0,0-2.28711-1.44678A8.08162,8.08162,0,0,0,446.93457,7.71a7.48871,7.48871,0,0,0-3.91309.99463,6.75225,6.75225,0,0,0-2.58007,2.77393,8.934,8.934,0,0,0-.915,4.13623,8.97922,8.97922,0,0,0,.915,4.18115,6.48948,6.48948,0,0,0,2.61035,2.72461,8.0964,8.0964,0,0,0,4.05176.95947,8.89563,8.89563,0,0,0,3.33593-.58154,6.12253,6.12253,0,0,0,2.36621-1.63086,5.33148,5.33148,0,0,0,1.21778-2.46094l-3.917-.2583a2.604,2.604,0,0,1-.63672.97412,2.68125,2.68125,0,0,1-1.00391.59668,4.00355,4.00355,0,0,1-1.293.19873,3.61549,3.61549,0,0,1-1.83887-.44726,3.01923,3.01923,0,0,1-1.19824-1.27295,4.24013,4.24013,0,0,1-.42285-1.9585v-.01025Zm-9.97265-4.13135a3.17094,3.17094,0,0,1,1.1582-1.18311,3.26258,3.26258,0,0,1,1.70508-.44238,3.20777,3.20777,0,0,1,1.626.40283,2.89693,2.89693,0,0,1,1.09864,1.1084,3.251,3.251,0,0,1,.39746,1.62061h-6.395A3.35271,3.35271,0,0,1,444.14063,12.49756ZM220.85254,9.63916a6.34243,6.34243,0,0,0-2.28711-1.44678A8.08162,8.08162,0,0,0,215.74707,7.71a7.48871,7.48871,0,0,0-3.91309.99463,6.75225,6.75225,0,0,0-2.58007,2.77393,8.934,8.934,0,0,0-.915,4.13623,8.97922,8.97922,0,0,0,.915,4.18115,6.48948,6.48948,0,0,0,2.61035,2.72461A8.0964,8.0964,0,0,0,215.916,23.48a8.89563,8.89563,0,0,0,3.33593-.58154,6.12253,6.12253,0,0,0,2.36621-1.63086,5.33148,5.33148,0,0,0,1.21778-2.46094l-3.917-.2583a2.604,2.604,0,0,1-.63672.97412,2.68125,2.68125,0,0,1-1.00391.59668,4.00355,4.00355,0,0,1-1.293.19873,3.61549,3.61549,0,0,1-1.83887-.44726,3.01923,3.01923,0,0,1-1.19824-1.27295,4.24013,4.24013,0,0,1-.42285-1.9585v-.01025h10.40039V15.46582a9.67968,9.67968,0,0,0-.54687-3.40576A6.584,6.584,0,0,0,220.85254,9.63916Zm-8.30908,4.36475a3.35271,3.35271,0,0,1,.40967-1.50635,3.17094,3.17094,0,0,1,1.1582-1.18311,3.26258,3.26258,0,0,1,1.70508-.44238,3.20777,3.20777,0,0,1,1.626.40283,2.89693,2.89693,0,0,1,1.09864,1.1084,3.251,3.251,0,0,1,.39746,1.62061ZM402.71777,8.58008a5.7645,5.7645,0,0,0-3.082-.87012,4.73926,4.73926,0,0,0-2.14258.43262,4.26419,4.26419,0,0,0-1.39257,1.07373,5.6311,5.6311,0,0,0-.81055,1.25781h-.12891V2.81787h-4.23535V23.18164h4.17578v-2.4458H395.29a5.10839,5.10839,0,0,0,.83594,1.25781,4.2828,4.2828,0,0,0,1.40625,1.02881,4.85908,4.85908,0,0,0,2.09375.40772,5.71533,5.71533,0,0,0,3.14648-.89991A6.12145,6.12145,0,0,0,405,19.87549a10.14176,10.14176,0,0,0,.82031-4.31055,10.012,10.012,0,0,0-.84472-4.36963A6.08361,6.08361,0,0,0,402.71777,8.58008Zm-1.5957,9.31689a3.52424,3.52424,0,0,1-1.08887,1.59082,2.96956,2.96956,0,0,1-3.49023.00977,3.50143,3.50143,0,0,1-1.09375-1.57568,6.79678,6.79678,0,0,1-.37793-2.37647,6.71511,6.71511,0,0,1,.37793-2.3667,3.418,3.418,0,0,1,1.08887-1.55127,2.77826,2.77826,0,0,1,1.74511-.54687,2.74421,2.74421,0,0,1,1.75977.56689,3.46486,3.46486,0,0,1,1.084,1.57129,6.75035,6.75035,0,0,1,.36817,2.32666A6.8162,6.8162,0,0,1,401.12207,17.897ZM176.27148,16.67871a3.26135,3.26135,0,0,1-.40332,1.72022A2.72329,2.72329,0,0,1,174.79,19.44775a3.0093,3.0093,0,0,1-1.43262.353,2.47075,2.47075,0,0,1-1.91894-.78515,3.09413,3.09413,0,0,1-.72559-2.13819V7.90869h-4.23535V17.6333a6.78456,6.78456,0,0,0,.66113,3.07227,4.74727,4.74727,0,0,0,1.81446,1.979,5.14742,5.14742,0,0,0,2.69433.6958,5.06429,5.06429,0,0,0,2.91895-.81543,4.524,4.524,0,0,0,1.71484-2.15723h.15918v2.77393h4.06641V7.90869h-4.23536Zm7.67188,6.50293h4.23633V2.81787h-4.23633Zm19.25-14.77539A5.36837,5.36837,0,0,0,200.41992,7.71a5.16732,5.16732,0,0,0-2.89355.78076,4.28413,4.28413,0,0,0-1.7002,2.1128h-.17969V7.90869h-4.03613v15.273h4.23535V14.35205a3.71106,3.71106,0,0,1,.37305-1.68555,2.53614,2.53614,0,0,1,1.01367-1.06884,3.01369,3.01369,0,0,1,1.50684-.36768,2.58014,2.58014,0,0,1,1.999.79053,3.09128,3.09128,0,0,1,.71582,2.19238v8.96875h4.23535V13.457a6.68015,6.68015,0,0,0-.65625-3.06738A4.73538,4.73538,0,0,0,203.19336,8.40625Zm-47.82129,9.8833h-.18848L150.26172,2.81787h-4.7832l7.03027,20.36377h5.54785l7.02051-20.36377h-4.77246ZM419.4502,8.93311a6.44128,6.44128,0,0,0-2.07813-.92481A9.84112,9.84112,0,0,0,414.93066,7.71a8.6671,8.6671,0,0,0-3.21679.55176A5.68753,5.68753,0,0,0,409.45215,9.833a5.358,5.358,0,0,0-1.17383,2.41113l3.918.31836a2.356,2.356,0,0,1,.89453-1.25781,2.9859,2.9859,0,0,1,1.82031-.50244,2.46616,2.46616,0,0,1,1.67481.51709,1.83781,1.83781,0,0,1,.59179,1.46191v.05957a.83085.83085,0,0,1-.36816.73584,2.99682,2.99682,0,0,1-1.18262.37256q-.81591.12451-2.14843.26367a13.82341,13.82341,0,0,0-2.16211.37793,6.16465,6.16465,0,0,0-1.835.79541,3.79207,3.79207,0,0,0-1.27247,1.39209,4.452,4.452,0,0,0-.46679,2.1377,4.50123,4.50123,0,0,0,.66113,2.5205A4.113,4.113,0,0,0,410.208,22.958a6.30712,6.30712,0,0,0,2.60448.5122,6.03638,6.03638,0,0,0,1.999-.30371,4.43511,4.43511,0,0,0,1.48145-.84472,4.24611,4.24611,0,0,0,.98437-1.25782h.11914v2.11768h4.01758V12.88037a4.87363,4.87363,0,0,0-.52734-2.34131A4.52642,4.52642,0,0,0,419.4502,8.93311ZM417.208,17.72266a2.618,2.618,0,0,1-.40821,1.44189,2.88692,2.88692,0,0,1-1.123,1.00928,3.52712,3.52712,0,0,1-1.65137.37305,2.688,2.688,0,0,1-1.60547-.45264,1.51844,1.51844,0,0,1-.63086-1.31738,1.59834,1.59834,0,0,1,.30762-.99952,2.11149,2.11149,0,0,1,.86523-.64111,5.25122,5.25122,0,0,1,1.30274-.34814q.34716-.04981.77539-.11426.42774-.06445.85547-.14893c.28418-.05664.542-.11963.77051-.189a2.17185,2.17185,0,0,0,.542-.23389ZM340.501,4.03613a10.83016,10.83016,0,0,0-5.29-1.21826h-7.27832V23.18164h7.21875a10.94667,10.94667,0,0,0,5.335-1.22314,8.30765,8.30765,0,0,0,3.42969-3.50977A11.64228,11.64228,0,0,0,345.11426,12.98,11.55827,11.55827,0,0,0,343.916,7.53125,8.30885,8.30885,0,0,0,340.501,4.03613Zm-.34278,12.65772a4.35828,4.35828,0,0,1-1.96875,2.11767,6.90414,6.90414,0,0,1-3.21679.68116h-2.73438V6.50684h2.74414a6.91862,6.91862,0,0,1,3.21192.67627A4.34051,4.34051,0,0,1,340.1582,9.291a8.84882,8.84882,0,0,1,.66114,3.689A8.942,8.942,0,0,1,340.1582,16.69385Zm18.80664-7.76074a6.43169,6.43169,0,0,0-2.07812-.92481A9.839,9.839,0,0,0,354.44629,7.71a8.66357,8.66357,0,0,0-3.2168.55176A5.69794,5.69794,0,0,0,348.9668,9.833a5.36647,5.36647,0,0,0-1.17285,2.41113l3.918.31836a2.35082,2.35082,0,0,1,.89454-1.25781,2.98079,2.98079,0,0,1,1.81933-.50244,2.46715,2.46715,0,0,1,1.67578.51709,1.83782,1.83782,0,0,1,.5918,1.46191v.05957a.83087.83087,0,0,1-.36816.73584,2.9968,2.9968,0,0,1-1.1836.37256q-.81445.12451-2.14746.26367a13.83642,13.83642,0,0,0-2.16309.37793,6.17,6.17,0,0,0-1.834.79541,3.78371,3.78371,0,0,0-1.27246,1.39209,4.44055,4.44055,0,0,0-.46777,2.1377,4.50918,4.50918,0,0,0,.66113,2.5205,4.113,4.113,0,0,0,1.80469,1.52149,6.315,6.315,0,0,0,2.60547.5122,6.02632,6.02632,0,0,0,1.998-.30371,4.42566,4.42566,0,0,0,1.48145-.84472A4.24611,4.24611,0,0,0,356.792,21.064h.12012v2.11768h4.0166V12.88037a4.87363,4.87363,0,0,0-.52734-2.34131A4.51722,4.51722,0,0,0,358.96484,8.93311Zm-2.24218,8.78955a2.61738,2.61738,0,0,1-.40723,1.44189,2.88981,2.88981,0,0,1-1.124,1.00928,3.52308,3.52308,0,0,1-1.65039.37305,2.688,2.688,0,0,1-1.60547-.45264,1.51684,1.51684,0,0,1-.63184-1.31738,1.59292,1.59292,0,0,1,.30859-.99952,2.09864,2.09864,0,0,1,.86524-.64111,5.2429,5.2429,0,0,1,1.30176-.34814q.34863-.04981.77636-.11426.42627-.06445.8545-.14893.42773-.085.7705-.189a2.17194,2.17194,0,0,0,.542-.23389Zm76.499-3.41016-2.76367-.55713a3.47109,3.47109,0,0,1-1.502-.60644,1.17586,1.17586,0,0,1-.4375-.92481,1.24532,1.24532,0,0,1,.67676-1.09863,3.13134,3.13134,0,0,1,1.66016-.4126,3.0217,3.0217,0,0,1,1.26758.24365,2.351,2.351,0,0,1,.86035.64649,2.039,2.039,0,0,1,.42773.89941l3.87793-.23828a4.73278,4.73278,0,0,0-1.94433-3.33105A7.5559,7.5559,0,0,0,430.78613,7.71a9.25137,9.25137,0,0,0-3.416.57666,5.08329,5.08329,0,0,0-2.25684,1.64063,4.095,4.095,0,0,0-.80079,2.53564,3.84062,3.84062,0,0,0,1.08888,2.814,6.30555,6.30555,0,0,0,3.32617,1.55127l2.64453.52685a3.5528,3.5528,0,0,1,1.47168.57178,1.18256,1.18256,0,0,1,.4873.9497,1.31373,1.31373,0,0,1-.69042,1.11817,3.88182,3.88182,0,0,1-3.6543-.04932,2.1217,2.1217,0,0,1-.915-1.40722l-4.166.21875a4.8977,4.8977,0,0,0,2.10254,3.45556A8.22186,8.22186,0,0,0,430.83594,23.48a9.13687,9.13687,0,0,0,3.51465-.63135,5.74724,5.74724,0,0,0,2.40625-1.76513,4.17213,4.17213,0,0,0,.87988-2.63477,3.46717,3.46717,0,0,0-1.09375-2.665A6.85394,6.85394,0,0,0,433.22168,14.3125ZM385.55273,8.93311a6.44113,6.44113,0,0,0-2.07812-.92481A9.84112,9.84112,0,0,0,381.0332,7.71a8.6671,8.6671,0,0,0-3.21679.55176A5.68753,5.68753,0,0,0,375.55469,9.833a5.358,5.358,0,0,0-1.17383,2.41113l3.918.31836a2.356,2.356,0,0,1,.89453-1.25781,2.9859,2.9859,0,0,1,1.82031-.50244,2.46616,2.46616,0,0,1,1.67481.51709,1.83781,1.83781,0,0,1,.59179,1.46191v.05957a.83085.83085,0,0,1-.36816.73584,2.99682,2.99682,0,0,1-1.18262.37256q-.81591.12451-2.14844.26367a13.82348,13.82348,0,0,0-2.1621.37793,6.16482,6.16482,0,0,0-1.835.79541,3.79213,3.79213,0,0,0-1.27246,1.39209,4.452,4.452,0,0,0-.46679,2.1377,4.50123,4.50123,0,0,0,.66113,2.5205,4.113,4.113,0,0,0,1.80469,1.52149,6.30713,6.30713,0,0,0,2.60449.5122,6.03641,6.03641,0,0,0,1.999-.30371,4.43521,4.43521,0,0,0,1.48145-.84472,4.24611,4.24611,0,0,0,.98437-1.25782h.11914v2.11768h4.01758V12.88037a4.87363,4.87363,0,0,0-.52734-2.34131A4.52636,4.52636,0,0,0,385.55273,8.93311Zm-2.24218,8.78955a2.618,2.618,0,0,1-.40821,1.44189,2.88692,2.88692,0,0,1-1.123,1.00928,3.52712,3.52712,0,0,1-1.65137.37305,2.688,2.688,0,0,1-1.60547-.45264,1.51844,1.51844,0,0,1-.63086-1.31738,1.59834,1.59834,0,0,1,.30762-.99952,2.11149,2.11149,0,0,1,.86523-.64111,5.25122,5.25122,0,0,1,1.30274-.34814q.34716-.04981.77539-.11426.42772-.06445.85547-.14893c.28418-.05664.542-.11963.7705-.189a2.17194,2.17194,0,0,0,.542-.23389Zm-12.08692,2.20263a3.28045,3.28045,0,0,1-.59668.05469,2.00076,2.00076,0,0,1-.75-.12939.98144.98144,0,0,1-.50293-.45215,1.902,1.902,0,0,1-.17871-.91016V11.09082h2.874V7.90869h-2.874V4.25H364.96V7.90869h-2.08789v3.18213H364.96v7.95459a4.44039,4.44039,0,0,0,.626,2.48584,3.74259,3.74259,0,0,0,1.78515,1.45166,6.405,6.405,0,0,0,2.67969.40772,7.49024,7.49024,0,0,0,1.40137-.16407c.38476-.08984.68262-.16748.89551-.23388l-.666-3.15186C371.5752,19.86084,371.42285,19.88867,371.22363,19.92529ZM288.62207,1.65479a2.27964,2.27964,0,0,0-1.61133.63134,2.02764,2.02764,0,0,0,0,3.02246,2.38937,2.38937,0,0,0,3.23633,0,2.0355,2.0355,0,0,0,0-3.02246A2.2857,2.2857,0,0,0,288.62207,1.65479Zm-2.12793,21.52685h4.23535V7.90869h-4.23535Zm-7.67187,0h4.23535V2.81787h-4.23535Zm-5.5586-21.52685a2.27734,2.27734,0,0,0-1.61035.63134,2.02568,2.02568,0,0,0,0,3.02246,2.38937,2.38937,0,0,0,3.23633,0,2.03749,2.03749,0,0,0,0-3.02246A2.28638,2.28638,0,0,0,273.26367,1.65479Zm27.92285,18.2705a3.28045,3.28045,0,0,1-.59668.05469,2.00076,2.00076,0,0,1-.75-.12939.98144.98144,0,0,1-.50293-.45215,1.902,1.902,0,0,1-.17871-.91016V11.09082h2.874V7.90869h-2.874V4.25h-4.23535V7.90869H292.835v3.18213h2.08789v7.95459a4.44039,4.44039,0,0,0,.626,2.48584,3.74259,3.74259,0,0,0,1.78515,1.45166,6.405,6.405,0,0,0,2.67969.40772,7.49024,7.49024,0,0,0,1.40137-.16407c.38476-.08984.68262-.16748.89551-.23388l-.666-3.15186C301.53809,19.86084,301.38574,19.88867,301.18652,19.92529ZM311.5166,19.125h-.15918L308.19531,7.90869h-4.4541l5.47852,15.71045-.24805.64649a1.81281,1.81281,0,0,1-1.21875,1.19775,3.8243,3.8243,0,0,1-1.89355-.18359l-.95508,3.17187a6.24574,6.24574,0,0,0,1.15819.30322,8.67422,8.67422,0,0,0,1.50685.124,6.50674,6.50674,0,0,0,2.68457-.502,4.91934,4.91934,0,0,0,1.84472-1.41211,7.12547,7.12547,0,0,0,1.15821-2.13281l5.93652-16.90332-4.48438-.02Z" style="fill:#07242d"/></svg>