<svg xmlns="http://www.w3.org/2000/svg" xmlns:xlink="http://www.w3.org/1999/xlink" viewBox="0 0 495.27969 40"><defs><linearGradient id="a" x1="13.70211" y1="12.46115" x2="18.44219" y2="7.72108" gradientUnits="userSpaceOnUse"><stop offset="0" stop-color="#ff445f" stop-opacity="0"/><stop offset="1" stop-color="#ff445f" stop-opacity="0.3"/></linearGradient><linearGradient id="b" x1="-2822.31645" y1="2814.91282" x2="-2822.31645" y2="2809.97457" gradientTransform="matrix(0, 1, 1, 0, -2797.76174, 2831.32846)" gradientUnits="userSpaceOnUse"><stop offset="0" stop-color="#ff445f" stop-opacity="0.4"/><stop offset="0.008" stop-color="#ff445f" stop-opacity="0.37252"/><stop offset="0.05232" stop-color="#ff445f" stop-opacity="0.23878"/><stop offset="0.09754" stop-color="#ff445f" stop-opacity="0.13396"/><stop offset="0.14349" stop-color="#ff445f" stop-opacity="0.05928"/><stop offset="0.19058" stop-color="#ff445f" stop-opacity="0.01467"/><stop offset="0.24057" stop-color="#ff445f" stop-opacity="0"/></linearGradient><linearGradient id="c" x1="0.97762" y1="25.1876" x2="6.04661" y2="20.14188" gradientUnits="userSpaceOnUse"><stop offset="0" stop-color="#1904da" stop-opacity="0.2"/><stop offset="1" stop-color="#1904da" stop-opacity="0"/></linearGradient><linearGradient id="d" x1="2.47569" y1="23.70738" x2="2.47569" y2="18.75691" gradientUnits="userSpaceOnUse"><stop offset="0" stop-color="#1904da" stop-opacity="0.3"/><stop offset="0.00842" stop-color="#1904da" stop-opacity="0.27834"/><stop offset="0.06395" stop-color="#1904da" stop-opacity="0.15659"/><stop offset="0.12067" stop-color="#1904da" stop-opacity="0.06932"/><stop offset="0.17882" stop-color="#1904da" stop-opacity="0.01716"/><stop offset="0.24057" stop-color="#1904da" stop-opacity="0"/></linearGradient></defs><path d="M263.00708,17.38859h-3.47169V36.62283h3.47169V26.7215a6.10059,6.10059,0,0,1,6.08194-5.87072V17.38911a9.52305,9.52305,0,0,0-6.08194,2.1947Zm262.73892.00026v.00026a9.61686,9.61686,0,1,0,8.81256,13.44906h-4.06782a6.09772,6.09772,0,0,1-10.72292-2.57935h15.51043A9.62771,9.62771,0,0,0,525.746,17.38885Zm-5.68407,7.36131a6.11851,6.11851,0,0,1,11.3634,0ZM269.71234,26.99132a9.64267,9.64267,0,0,0,8.99024,9.60986q.31522.0206.63414.02165h9.64181V26.99132a9.63994,9.63994,0,0,0-.57026-3.27026C284.61924,13.71334,269.93437,16.14353,269.71234,26.99132Zm9.63257,6.1152a6.11333,6.11333,0,0,1-6.10068-6.1152,6.04671,6.04671,0,0,1,1.79445-4.30649l.0008.00106a6.07908,6.07908,0,0,1,10.37522,4.30543c.00026,1.68859.00026,6.1152.00026,6.1152ZM201.821,27.08029a6.12841,6.12841,0,1,1-12.2568,0v-9.6917H186.171V27.088a9.52486,9.52486,0,1,0,19.04971.0132V17.38859H201.821Zm112.60673,9.54254h3.46641V17.38859h-3.46641ZM301.93072,17.39334a9.57462,9.57462,0,0,0-6.12972,2.2071l.00159-10.13154h-3.49018s0,26.93481-.00211,27.15393h3.49018v-2.2071a9.61464,9.61464,0,1,0,6.13024-17.02239Zm-.00053,15.74882a6.13395,6.13395,0,1,1,6.134-6.13368A6.16155,6.16155,0,0,1,301.93019,33.14216ZM247.0753,17.38885v.00026a9.61686,9.61686,0,1,0,8.81257,13.44906h-4.06756a6.09792,6.09792,0,0,1-10.72318-2.57935h15.51095A9.62824,9.62824,0,0,0,247.0753,17.38885Zm-5.68407,7.36131a6.11851,6.11851,0,0,1,11.3634,0Zm-32.8623,11.87267h3.49889V9.4689h-3.49889Zm259.0415-19.22949a9.57458,9.57458,0,0,0-6.12972,2.2071l.00158-10.13154h-3.49017s0,26.93481-.00211,27.15393h3.49017v-2.2071a9.61464,9.61464,0,1,0,6.13025-17.02239Zm-.00053,15.74882a6.13395,6.13395,0,1,1,6.13395-6.13368A6.16155,6.16155,0,0,1,467.5699,33.14216ZM175.03751,28.748l-5.68223-11.35943h-3.93952l9.62175,19.23424,9.60933-19.23424h-3.93978Zm50.405-11.35943a9.45161,9.45161,0,0,0-6.11335,2.16617V17.38859h-3.50812V36.62283h3.50812V26.98657a6.10692,6.10692,0,0,1,12.21377,0v9.63626h3.50945V26.98657A9.58367,9.58367,0,0,0,225.44255,17.38859Zm253.703,9.60273a9.64321,9.64321,0,0,0,8.9905,9.60986q.31522.0206.63415.02165h9.64207V26.99132a9.65262,9.65262,0,0,0-.57026-3.27026C494.05247,13.71334,479.36786,16.14353,479.14556,26.99132Zm9.6331,6.1152a6.11361,6.11361,0,0,1-6.10121-6.1152,6.048,6.048,0,0,1,1.79472-4.30649l.00053.00106a6.07928,6.07928,0,0,1,10.37548,4.30543c.00053,1.68859.00053,6.1152.00053,6.1152Zm18.85645-8.28666c-1.75565-.23127-2.95055-.95307-2.97695-2.295,0,0-.08448-1.68543,2.97695-1.70443a6.01577,6.01577,0,0,1,3.58416,1.22525l2.49117-2.49091a9.39643,9.39643,0,0,0-6.07533-2.16063c-3.83075,0-5.41268,2.24406-5.76645,2.87477a4.69947,4.69947,0,0,0,.94145,6.02623,8.59162,8.59162,0,0,0,4.825,1.92462c1.89293.27192,2.84864,1.22789,2.74673,2.60311a2.803,2.803,0,0,1-2.74673,2.32062,6.40257,6.40257,0,0,1-4.391-1.85386L500.782,33.75175a9.76288,9.76288,0,0,0,6.8531,2.87161,6.1804,6.1804,0,0,0,6.49722-5.38179C514.30657,29.27181,513.6117,25.60792,507.63511,24.81986Zm-111.552-15.351-.00528,10.12837a9.61185,9.61185,0,1,0,0,14.81v2.20684h3.48912c-.00106-.21886.00528-27.14522.00528-27.14522ZM389.9502,33.135a6.1321,6.1321,0,1,1,6.13341-6.14133A6.132,6.132,0,0,1,389.9502,33.135Zm12.46536-6.14371a9.64321,9.64321,0,0,0,8.9905,9.60986q.31522.0206.63415.02165h9.64207V26.99132a9.65286,9.65286,0,0,0-.57025-3.27026C417.32247,13.71334,402.63786,16.14353,402.41556,26.99132Zm9.6331,6.1152a6.11361,6.11361,0,0,1-6.10121-6.1152,6.048,6.048,0,0,1,1.79472-4.30649l.00053.00106a6.07928,6.07928,0,0,1,10.37548,4.30543c.00053,1.68859.00053,6.1152.00053,6.1152Zm23.30286-6.1152a9.64321,9.64321,0,0,0,8.9905,9.60986q.31522.0206.63415.02165h9.64207V26.99132a9.65287,9.65287,0,0,0-.57026-3.27026C450.25842,13.71334,435.57381,16.14353,435.35152,26.99132Zm9.63309,6.1152a6.1136,6.1136,0,0,1-6.1012-6.1152,6.048,6.048,0,0,1,1.79472-4.30649l.00053.00106a6.07928,6.07928,0,0,1,10.37548,4.30543c.00053,1.68859.00053,6.1152.00053,6.1152ZM427.99945,9.4689H424.533V26.92162a9.67954,9.67954,0,0,0,3.46642,7.43154,9.56409,9.56409,0,0,0,6.19836,2.26914V33.13741a6.202,6.202,0,0,1-6.19836-6.1284V20.89645h6.19836V17.38859h-6.19836Zm-99.02752,3.45849h3.46641V9.46045h-3.46641Zm0,23.69544h3.46641V17.38859h-3.46641Zm34.49465-9.626a6.11525,6.11525,0,1,1-12.2304,0c0-.25687-.00158-9.60907-.00158-9.60907h-3.5113v9.60907a9.63168,9.63168,0,0,0,15.74381,7.43762v5.37439a6.13235,6.13235,0,0,1-6.11071,6.13949,6.0577,6.0577,0,0,1-3.93582-1.44544l-2.4917,2.4917a9.61948,9.61948,0,0,0,16.05058-7.18575V17.38859h-3.51288Zm-41.78653,9.626h3.49915V9.4689h-3.49915Zm-7.25228-23.69544h3.46641V9.46045h-3.46641ZM339.2096,9.4689h-3.46642V26.92162a9.67954,9.67954,0,0,0,3.46642,7.43154A9.56411,9.56411,0,0,0,345.408,36.6223V33.13741a6.202,6.202,0,0,1-6.19836-6.1284V20.89645H345.408V17.38859H339.2096Z" transform="translate(-40.08894 -9.46045)" style="fill:#bb0505"/><path d="M57.24459,15.99688H49.54178a1.24806,1.24806,0,0,0-.88251.36554l-3.26539,3.2654a.6837.6837,0,0,0-.25215.55474s0,.75675.706.75675H57.24452Z" transform="translate(-40.08894 -9.46045)" style="fill:#ffc900"/><polygon points="12.217 11.479 17.156 11.479 17.156 6.536 12.217 11.479" style="opacity:0.89;fill:url(#a)"/><polygon points="17.156 6.536 12.217 11.479 17.156 11.479 17.156 6.536" style="fill:url(#b)"/><path d="M62.06062,16.41205a.87711.87711,0,0,0-.73783-.41517h-4.0782s-.00015,12.98984,0,16.339a.71011.71011,0,0,0,.7572.70606.684.684,0,0,0,.555-.2523L61.822,29.52442a1.2456,1.2456,0,0,0,.3633-.88257V16.80125A.76473.76473,0,0,0,62.06062,16.41205Z" transform="translate(-40.08894 -9.46045)" style="fill:#ff445f"/><path d="M45.04027,33.16783V21.74316c0-.70772-.7587-.70772-.7587-.70772a.68532.68532,0,0,0-.55607.25276l-3.2733,3.27329a1.248,1.248,0,0,0-.3632.88467v7.72167h4.95127Z" transform="translate(-40.08894 -9.46045)" style="fill:#08b1d5"/><polyline points="0 23.707 4.951 18.757 4.951 23.707 0 23.707" style="opacity:0.8200000000000001;fill:url(#c)"/><polyline points="0 23.707 4.951 18.757 4.951 23.707 0 23.707" style="fill:url(#d)"/><path d="M40.508,37.94424a.88108.88108,0,0,1-.41893-.7392V33.16783H56.46548a.666.666,0,0,1,.70853.691.68567.68567,0,0,1-.25236.55656l-3.27339,3.27292a1.24379,1.24379,0,0,1-.8808.36859H40.89823A.75031.75031,0,0,1,40.508,37.94424Z" transform="translate(-40.08894 -9.46045)" style="fill:#1904da"/><path d="M128.44835,27.14765a6.15684,6.15684,0,1,1-12.31366,0V17.41109H112.726V27.155a9.569,9.569,0,1,0,19.138.01333V17.41109h-3.41566Zm-60.10418-.09043a9.68873,9.68873,0,0,0,9.03314,9.65557c.21081.01386.4235.02135.63692.02149h9.68758V27.05722a9.70108,9.70108,0,0,0-.573-3.28573C83.32143,13.71631,68.56723,16.158,68.34417,27.05722Zm15.7773,6.14428H78.02228A6.14213,6.14213,0,0,1,71.893,27.05722a6.07506,6.07506,0,0,1,1.803-4.32671l.00109.00112a6.108,6.108,0,0,1,10.42439,4.32559C84.12154,28.75363,84.12147,33.2015,84.12147,33.2015Zm69.42839-9.43c-3.80738-10.05518-18.56159-7.61347-18.78461,3.28573a9.68865,9.68865,0,0,0,9.03311,9.65557c.21081.01386.4235.02135.63691.02149h9.68758V27.05722A9.70153,9.70153,0,0,0,153.54986,23.77149Zm-3.00734,9.43h-6.09919a6.14213,6.14213,0,0,1-6.12933-6.14428,6.07506,6.07506,0,0,1,1.803-4.32671l.00109.00112a6.108,6.108,0,0,1,10.42439,4.32559C150.54259,28.75363,150.54252,33.2015,150.54252,33.2015ZM100.21974,17.411a9.61719,9.61719,0,1,0,0,19.23437h.4863l3.5379-3.52228h-4.0242a6.09493,6.09493,0,1,1,6.10788-6.09491V49.33593h3.49779V27.60642c.01136-.1913,0-.38406,0-.57821A9.60736,9.60736,0,0,0,100.21974,17.411Z" transform="translate(-40.08894 -9.46045)" style="fill:#07242d"/></svg>